<svg xmlns="http://www.w3.org/2000/svg" xmlns:xlink="http://www.w3.org/1999/xlink" width="48" zoomAndPan="magnify" viewBox="0 0 36 36.000001" height="48" preserveAspectRatio="xMidYMid meet" version="1.0"><defs><g/><clipPath id="b90409ab75"><path d="M 5 12 L 34.4375 12 L 34.4375 22 L 5 22 Z M 5 12 " clip-rule="nonzero"/></clipPath><clipPath id="fb1be5b35d"><path d="M 1.601562 11.507812 L 14 11.507812 L 14 23.183594 L 1.601562 23.183594 Z M 1.601562 11.507812 " clip-rule="nonzero"/></clipPath></defs><g fill="#000000" fill-opacity="1"><g transform="translate(16.978328, 14.814212)"><g><path d="M 0.375 -1.390625 L 0.375 -0.140625 L 1.03125 -0.140625 L 1.03125 0 L 0.203125 0 L 0.203125 -1.390625 Z M 0.375 -1.390625 "/></g></g></g><g fill="#000000" fill-opacity="1"><g transform="translate(18.075272, 14.814212)"><g><path d="M 0.265625 -1.25 C 0.222656 -1.25 0.191406 -1.257812 0.171875 -1.28125 C 0.160156 -1.300781 0.15625 -1.328125 0.15625 -1.359375 C 0.15625 -1.390625 0.160156 -1.414062 0.171875 -1.4375 C 0.191406 -1.457031 0.222656 -1.46875 0.265625 -1.46875 C 0.296875 -1.46875 0.320312 -1.457031 0.34375 -1.4375 C 0.363281 -1.414062 0.375 -1.390625 0.375 -1.359375 C 0.375 -1.328125 0.363281 -1.300781 0.34375 -1.28125 C 0.320312 -1.257812 0.296875 -1.25 0.265625 -1.25 Z M 0.1875 0 L 0.1875 -1.046875 L 0.328125 -1.046875 L 0.328125 0 Z M 0.1875 0 "/></g></g></g><g fill="#000000" fill-opacity="1"><g transform="translate(18.592984, 14.814212)"><g><path d="M 0.65625 0 L 0.453125 0 L 0.046875 -1.046875 L 0.21875 -1.046875 L 0.546875 -0.171875 L 0.5625 -0.171875 L 0.890625 -1.046875 L 1.0625 -1.046875 Z M 0.65625 0 "/></g></g></g><g fill="#000000" fill-opacity="1"><g transform="translate(19.679483, 14.814212)"><g><path d="M 1 -0.484375 L 0.28125 -0.484375 C 0.28125 -0.359375 0.304688 -0.265625 0.359375 -0.203125 C 0.421875 -0.148438 0.5 -0.125 0.59375 -0.125 C 0.675781 -0.125 0.738281 -0.132812 0.78125 -0.15625 C 0.820312 -0.1875 0.859375 -0.226562 0.890625 -0.28125 L 0.90625 -0.28125 L 1 -0.21875 C 0.976562 -0.144531 0.929688 -0.0859375 0.859375 -0.046875 C 0.796875 -0.00390625 0.707031 0.015625 0.59375 0.015625 C 0.5 0.015625 0.414062 0 0.34375 -0.03125 C 0.269531 -0.0703125 0.210938 -0.132812 0.171875 -0.21875 C 0.128906 -0.300781 0.109375 -0.398438 0.109375 -0.515625 C 0.109375 -0.640625 0.128906 -0.738281 0.171875 -0.8125 C 0.210938 -0.894531 0.269531 -0.957031 0.34375 -1 C 0.414062 -1.039062 0.5 -1.0625 0.59375 -1.0625 C 0.726562 -1.0625 0.832031 -1.023438 0.90625 -0.953125 C 0.976562 -0.878906 1.015625 -0.765625 1.015625 -0.609375 C 1.015625 -0.554688 1.015625 -0.519531 1.015625 -0.5 Z M 0.859375 -0.609375 C 0.859375 -0.722656 0.832031 -0.804688 0.78125 -0.859375 C 0.738281 -0.910156 0.675781 -0.9375 0.59375 -0.9375 C 0.5 -0.9375 0.425781 -0.910156 0.375 -0.859375 C 0.320312 -0.804688 0.289062 -0.722656 0.28125 -0.609375 Z M 0.859375 -0.609375 "/></g></g></g><g clip-path="url(#b90409ab75)"><path fill="#ee1527" d="M 10.09375 12.78125 L 29.691406 12.78125 C 32.285156 12.78125 34.390625 14.824219 34.390625 17.34375 C 34.390625 19.867188 32.285156 21.910156 29.691406 21.910156 L 10.09375 21.910156 C 7.5 21.910156 5.394531 19.867188 5.394531 17.34375 C 5.394531 14.824219 7.5 12.78125 10.09375 12.78125 " fill-opacity="1" fill-rule="nonzero"/></g><g clip-path="url(#fb1be5b35d)"><path fill="#ee1527" d="M 13.671875 17.34375 C 13.671875 14.121094 10.980469 11.507812 7.660156 11.507812 C 4.339844 11.507812 1.648438 14.121094 1.648438 17.34375 C 1.648438 20.570312 4.339844 23.183594 7.660156 23.183594 C 10.980469 23.183594 13.671875 20.570312 13.671875 17.34375 " fill-opacity="1" fill-rule="nonzero"/></g><path fill="#ffffff" d="M 13.0625 17.34375 C 13.0625 14.449219 10.640625 12.101562 7.660156 12.101562 C 4.675781 12.101562 2.257812 14.449219 2.257812 17.34375 C 2.257812 20.242188 4.675781 22.589844 7.660156 22.589844 C 10.640625 22.589844 13.0625 20.242188 13.0625 17.34375 " fill-opacity="1" fill-rule="nonzero"/><path fill="#ee1527" d="M 10.640625 17.34375 L 5.425781 20.269531 L 5.425781 14.421875 Z M 10.640625 17.34375 " fill-opacity="1" fill-rule="nonzero"/><path fill="#ffffff" d="M 16.113281 15.105469 L 16.867188 15.105469 L 16.867188 18.949219 L 19.601562 18.949219 L 19.601562 19.5625 L 16.113281 19.5625 L 16.113281 15.105469 " fill-opacity="1" fill-rule="nonzero"/><path fill="#ffffff" d="M 21.042969 15.105469 L 21.042969 19.5625 L 20.285156 19.5625 L 20.285156 15.105469 L 21.042969 15.105469 " fill-opacity="1" fill-rule="nonzero"/><path fill="#ffffff" d="M 23.742188 19.5625 L 21.769531 15.105469 L 22.605469 15.105469 L 23.59375 17.421875 C 23.960938 18.285156 24.105469 18.695312 24.191406 18.953125 L 24.203125 18.953125 C 24.277344 18.726562 24.449219 18.320312 24.785156 17.480469 L 25.8125 15.105469 L 26.625 15.105469 L 24.617188 19.5625 L 23.742188 19.5625 " fill-opacity="1" fill-rule="nonzero"/><path fill="#ffffff" d="M 30.761719 17.535156 L 28.050781 17.535156 L 28.050781 18.953125 L 30.949219 18.953125 L 30.949219 19.5625 L 27.292969 19.5625 L 27.292969 15.105469 L 30.902344 15.105469 L 30.902344 15.714844 L 28.050781 15.714844 L 28.050781 16.921875 L 30.761719 16.921875 L 30.761719 17.535156 " fill-opacity="1" fill-rule="nonzero"/></svg>