<svg xmlns="http://www.w3.org/2000/svg" xmlns:xlink="http://www.w3.org/1999/xlink" width="48" zoomAndPan="magnify" viewBox="0 0 36 36.000001" height="48" preserveAspectRatio="xMidYMid meet" version="1.0"><defs><g/><clipPath id="4587891226"><path d="M 3.988281 11.507812 L 32.449219 11.507812 L 32.449219 23.183594 L 3.988281 23.183594 Z M 3.988281 11.507812 " clip-rule="nonzero"/></clipPath></defs><g fill="#000000" fill-opacity="1"><g transform="translate(16.978328, 14.814212)"><g><path d="M 0.375 -1.390625 L 0.375 -0.140625 L 1.03125 -0.140625 L 1.03125 0 L 0.203125 0 L 0.203125 -1.390625 Z M 0.375 -1.390625 "/></g></g></g><g fill="#000000" fill-opacity="1"><g transform="translate(18.075272, 14.814212)"><g><path d="M 0.265625 -1.25 C 0.222656 -1.25 0.191406 -1.257812 0.171875 -1.28125 C 0.160156 -1.300781 0.15625 -1.328125 0.15625 -1.359375 C 0.15625 -1.390625 0.160156 -1.414062 0.171875 -1.4375 C 0.191406 -1.457031 0.222656 -1.46875 0.265625 -1.46875 C 0.296875 -1.46875 0.320312 -1.457031 0.34375 -1.4375 C 0.363281 -1.414062 0.375 -1.390625 0.375 -1.359375 C 0.375 -1.328125 0.363281 -1.300781 0.34375 -1.28125 C 0.320312 -1.257812 0.296875 -1.25 0.265625 -1.25 Z M 0.1875 0 L 0.1875 -1.046875 L 0.328125 -1.046875 L 0.328125 0 Z M 0.1875 0 "/></g></g></g><g fill="#000000" fill-opacity="1"><g transform="translate(18.592984, 14.814212)"><g><path d="M 0.65625 0 L 0.453125 0 L 0.046875 -1.046875 L 0.21875 -1.046875 L 0.546875 -0.171875 L 0.5625 -0.171875 L 0.890625 -1.046875 L 1.0625 -1.046875 Z M 0.65625 0 "/></g></g></g><g fill="#000000" fill-opacity="1"><g transform="translate(19.679483, 14.814212)"><g><path d="M 1 -0.484375 L 0.28125 -0.484375 C 0.28125 -0.359375 0.304688 -0.265625 0.359375 -0.203125 C 0.421875 -0.148438 0.5 -0.125 0.59375 -0.125 C 0.675781 -0.125 0.738281 -0.132812 0.78125 -0.15625 C 0.820312 -0.1875 0.859375 -0.226562 0.890625 -0.28125 L 0.90625 -0.28125 L 1 -0.21875 C 0.976562 -0.144531 0.929688 -0.0859375 0.859375 -0.046875 C 0.796875 -0.00390625 0.707031 0.015625 0.59375 0.015625 C 0.5 0.015625 0.414062 0 0.34375 -0.03125 C 0.269531 -0.0703125 0.210938 -0.132812 0.171875 -0.21875 C 0.128906 -0.300781 0.109375 -0.398438 0.109375 -0.515625 C 0.109375 -0.640625 0.128906 -0.738281 0.171875 -0.8125 C 0.210938 -0.894531 0.269531 -0.957031 0.34375 -1 C 0.414062 -1.039062 0.5 -1.0625 0.59375 -1.0625 C 0.726562 -1.0625 0.832031 -1.023438 0.90625 -0.953125 C 0.976562 -0.878906 1.015625 -0.765625 1.015625 -0.609375 C 1.015625 -0.554688 1.015625 -0.519531 1.015625 -0.5 Z M 0.859375 -0.609375 C 0.859375 -0.722656 0.832031 -0.804688 0.78125 -0.859375 C 0.738281 -0.910156 0.675781 -0.9375 0.59375 -0.9375 C 0.5 -0.9375 0.425781 -0.910156 0.375 -0.859375 C 0.320312 -0.804688 0.289062 -0.722656 0.28125 -0.609375 Z M 0.859375 -0.609375 "/></g></g></g><g clip-path="url(#4587891226)"><path fill="#ff0000" d="M 5.949219 11.507812 L 30.488281 11.507812 C 30.75 11.507812 31 11.558594 31.238281 11.652344 C 31.480469 11.75 31.691406 11.890625 31.875 12.070312 C 32.058594 12.25 32.199219 12.457031 32.300781 12.691406 C 32.398438 12.925781 32.449219 13.171875 32.449219 13.425781 L 32.449219 21.265625 C 32.449219 21.519531 32.398438 21.765625 32.300781 22 C 32.199219 22.234375 32.058594 22.441406 31.875 22.621094 C 31.691406 22.800781 31.480469 22.9375 31.238281 23.035156 C 31 23.132812 30.75 23.183594 30.488281 23.183594 L 5.949219 23.183594 C 5.691406 23.183594 5.441406 23.132812 5.199219 23.035156 C 4.960938 22.9375 4.746094 22.800781 4.5625 22.621094 C 4.378906 22.441406 4.238281 22.234375 4.140625 22 C 4.039062 21.765625 3.988281 21.519531 3.988281 21.265625 L 3.988281 13.425781 C 3.988281 13.171875 4.039062 12.925781 4.140625 12.691406 C 4.238281 12.457031 4.378906 12.25 4.5625 12.070312 C 4.746094 11.890625 4.960938 11.75 5.199219 11.652344 C 5.441406 11.558594 5.691406 11.507812 5.949219 11.507812 Z M 5.949219 11.507812 " fill-opacity="1" fill-rule="nonzero"/></g><path fill="#ffffff" d="M 18.710938 20.554688 L 17.691406 20.554688 L 16.703125 18.484375 C 16.628906 18.328125 16.554688 18.195312 16.476562 18.09375 C 16.398438 17.988281 16.316406 17.90625 16.226562 17.84375 C 16.136719 17.785156 16.039062 17.742188 15.933594 17.714844 C 15.824219 17.6875 15.707031 17.675781 15.574219 17.675781 L 15.148438 17.675781 L 15.148438 20.554688 L 14.246094 20.554688 L 14.246094 14.085938 L 16.019531 14.085938 C 16.40625 14.085938 16.738281 14.125 17.015625 14.207031 C 17.289062 14.289062 17.519531 14.40625 17.695312 14.554688 C 17.871094 14.703125 18.003906 14.882812 18.085938 15.09375 C 18.167969 15.300781 18.210938 15.535156 18.210938 15.789062 C 18.210938 15.988281 18.179688 16.179688 18.117188 16.359375 C 18.058594 16.539062 17.96875 16.703125 17.847656 16.847656 C 17.726562 16.996094 17.578125 17.125 17.402344 17.230469 C 17.222656 17.339844 17.019531 17.417969 16.789062 17.472656 C 16.976562 17.535156 17.132812 17.644531 17.265625 17.800781 C 17.394531 17.957031 17.527344 18.164062 17.664062 18.425781 Z M 17.265625 15.863281 C 17.265625 15.515625 17.15625 15.257812 16.933594 15.085938 C 16.714844 14.914062 16.402344 14.828125 16 14.828125 L 15.148438 14.828125 L 15.148438 16.964844 L 15.878906 16.964844 C 16.089844 16.964844 16.28125 16.941406 16.453125 16.894531 C 16.625 16.847656 16.769531 16.773438 16.890625 16.679688 C 17.007812 16.585938 17.101562 16.472656 17.167969 16.335938 C 17.234375 16.199219 17.265625 16.039062 17.265625 15.863281 Z M 17.265625 15.863281 " fill-opacity="1" fill-rule="nonzero"/><path fill="#ffffff" d="M 23.875 20.554688 L 20.109375 20.554688 L 20.109375 14.085938 L 23.875 14.085938 L 23.875 14.828125 L 21.011719 14.828125 L 21.011719 16.832031 L 23.765625 16.832031 L 23.765625 17.574219 L 21.011719 17.574219 L 21.011719 19.804688 L 23.875 19.804688 Z M 23.875 20.554688 " fill-opacity="1" fill-rule="nonzero"/><path fill="#ffffff" d="M 29.839844 20.3125 C 29.308594 20.527344 28.753906 20.636719 28.171875 20.636719 C 27.238281 20.636719 26.519531 20.363281 26.015625 19.816406 C 25.515625 19.269531 25.265625 18.460938 25.265625 17.390625 C 25.265625 16.875 25.332031 16.40625 25.472656 15.984375 C 25.609375 15.566406 25.808594 15.210938 26.066406 14.917969 C 26.320312 14.625 26.632812 14.402344 26.996094 14.242188 C 27.363281 14.085938 27.769531 14.003906 28.222656 14.003906 C 28.53125 14.003906 28.816406 14.03125 29.078125 14.082031 C 29.34375 14.132812 29.597656 14.210938 29.839844 14.316406 L 29.839844 15.183594 C 29.601562 15.054688 29.351562 14.957031 29.09375 14.890625 C 28.839844 14.820312 28.558594 14.789062 28.253906 14.789062 C 27.949219 14.789062 27.660156 14.84375 27.410156 14.957031 C 27.160156 15.070312 26.945312 15.238281 26.769531 15.453125 C 26.59375 15.667969 26.457031 15.933594 26.363281 16.246094 C 26.269531 16.558594 26.222656 16.914062 26.222656 17.3125 C 26.222656 18.152344 26.394531 18.785156 26.742188 19.210938 C 27.089844 19.636719 27.601562 19.847656 28.273438 19.847656 C 28.558594 19.847656 28.828125 19.816406 29.089844 19.75 C 29.351562 19.6875 29.601562 19.597656 29.839844 19.480469 Z M 29.839844 20.3125 " fill-opacity="1" fill-rule="nonzero"/><path fill="#ffffff" d="M 11.976562 17.230469 C 11.976562 17.625 11.902344 18 11.75 18.363281 C 11.59375 18.722656 11.375 19.042969 11.09375 19.320312 C 10.808594 19.597656 10.484375 19.808594 10.113281 19.960938 C 9.742188 20.109375 9.359375 20.183594 8.957031 20.183594 C 8.554688 20.183594 8.171875 20.109375 7.800781 19.960938 C 7.429688 19.808594 7.105469 19.597656 6.820312 19.320312 C 6.539062 19.042969 6.320312 18.722656 6.164062 18.363281 C 6.011719 18 5.9375 17.625 5.9375 17.230469 C 5.9375 16.839844 6.011719 16.464844 6.164062 16.101562 C 6.320312 15.742188 6.539062 15.421875 6.820312 15.144531 C 7.105469 14.867188 7.429688 14.65625 7.800781 14.503906 C 8.171875 14.355469 8.554688 14.28125 8.957031 14.28125 C 9.359375 14.28125 9.742188 14.355469 10.113281 14.503906 C 10.484375 14.65625 10.808594 14.867188 11.09375 15.144531 C 11.375 15.421875 11.59375 15.742188 11.75 16.101562 C 11.902344 16.464844 11.976562 16.839844 11.976562 17.230469 Z M 11.976562 17.230469 " fill-opacity="1" fill-rule="nonzero"/></svg>