<svg xmlns="http://www.w3.org/2000/svg" xmlns:xlink="http://www.w3.org/1999/xlink" width="48" zoomAndPan="magnify" viewBox="0 0 36 36.000001" height="48" preserveAspectRatio="xMidYMid meet" version="1.0"><defs><g/><clipPath id="c05bd2d701"><path d="M 1.605469 1.117188 L 34.441406 1.117188 L 34.441406 33.957031 L 1.605469 33.957031 Z M 1.605469 1.117188 " clip-rule="nonzero"/></clipPath></defs><g fill="#000000" fill-opacity="1"><g transform="translate(16.978328, 14.814212)"><g><path d="M 0.375 -1.390625 L 0.375 -0.140625 L 1.03125 -0.140625 L 1.03125 0 L 0.203125 0 L 0.203125 -1.390625 Z M 0.375 -1.390625 "/></g></g></g><g fill="#000000" fill-opacity="1"><g transform="translate(18.075272, 14.814212)"><g><path d="M 0.265625 -1.25 C 0.222656 -1.25 0.191406 -1.257812 0.171875 -1.28125 C 0.160156 -1.300781 0.15625 -1.328125 0.15625 -1.359375 C 0.15625 -1.390625 0.160156 -1.414062 0.171875 -1.4375 C 0.191406 -1.457031 0.222656 -1.46875 0.265625 -1.46875 C 0.296875 -1.46875 0.320312 -1.457031 0.34375 -1.4375 C 0.363281 -1.414062 0.375 -1.390625 0.375 -1.359375 C 0.375 -1.328125 0.363281 -1.300781 0.34375 -1.28125 C 0.320312 -1.257812 0.296875 -1.25 0.265625 -1.25 Z M 0.1875 0 L 0.1875 -1.046875 L 0.328125 -1.046875 L 0.328125 0 Z M 0.1875 0 "/></g></g></g><g fill="#000000" fill-opacity="1"><g transform="translate(18.592984, 14.814212)"><g><path d="M 0.65625 0 L 0.453125 0 L 0.046875 -1.046875 L 0.21875 -1.046875 L 0.546875 -0.171875 L 0.5625 -0.171875 L 0.890625 -1.046875 L 1.0625 -1.046875 Z M 0.65625 0 "/></g></g></g><g fill="#000000" fill-opacity="1"><g transform="translate(19.679483, 14.814212)"><g><path d="M 1 -0.484375 L 0.28125 -0.484375 C 0.28125 -0.359375 0.304688 -0.265625 0.359375 -0.203125 C 0.421875 -0.148438 0.5 -0.125 0.59375 -0.125 C 0.675781 -0.125 0.738281 -0.132812 0.78125 -0.15625 C 0.820312 -0.1875 0.859375 -0.226562 0.890625 -0.28125 L 0.90625 -0.28125 L 1 -0.21875 C 0.976562 -0.144531 0.929688 -0.0859375 0.859375 -0.046875 C 0.796875 -0.00390625 0.707031 0.015625 0.59375 0.015625 C 0.5 0.015625 0.414062 0 0.34375 -0.03125 C 0.269531 -0.0703125 0.210938 -0.132812 0.171875 -0.21875 C 0.128906 -0.300781 0.109375 -0.398438 0.109375 -0.515625 C 0.109375 -0.640625 0.128906 -0.738281 0.171875 -0.8125 C 0.210938 -0.894531 0.269531 -0.957031 0.34375 -1 C 0.414062 -1.039062 0.5 -1.0625 0.59375 -1.0625 C 0.726562 -1.0625 0.832031 -1.023438 0.90625 -0.953125 C 0.976562 -0.878906 1.015625 -0.765625 1.015625 -0.609375 C 1.015625 -0.554688 1.015625 -0.519531 1.015625 -0.5 Z M 0.859375 -0.609375 C 0.859375 -0.722656 0.832031 -0.804688 0.78125 -0.859375 C 0.738281 -0.910156 0.675781 -0.9375 0.59375 -0.9375 C 0.5 -0.9375 0.425781 -0.910156 0.375 -0.859375 C 0.320312 -0.804688 0.289062 -0.722656 0.28125 -0.609375 Z M 0.859375 -0.609375 "/></g></g></g><g clip-path="url(#c05bd2d701)"><path fill="#8bc34a" d="M 34.441406 17.539062 C 34.441406 26.609375 27.09375 33.957031 18.023438 33.957031 C 8.953125 33.957031 1.605469 26.609375 1.605469 17.539062 C 1.605469 8.464844 8.953125 1.117188 18.023438 1.117188 C 27.09375 1.117188 34.441406 8.464844 34.441406 17.539062 Z M 34.441406 17.539062 " fill-opacity="1" fill-rule="nonzero"/></g><path fill="#ffffff" d="M 20.542969 27.011719 L 20.542969 16.203125 L 22.929688 18.597656 C 23.179688 18.839844 23.578125 18.839844 23.824219 18.597656 L 26.503906 15.917969 C 26.746094 15.667969 26.746094 15.269531 26.503906 15.023438 L 18.464844 6.988281 C 18.214844 6.742188 17.8125 6.742188 17.570312 6.988281 L 9.53125 15.023438 C 9.289062 15.269531 9.289062 15.667969 9.53125 15.917969 L 12.210938 18.597656 C 12.453125 18.839844 12.855469 18.839844 13.105469 18.597656 L 15.492188 16.203125 L 15.492188 27.011719 C 15.492188 27.359375 15.773438 27.640625 16.125 27.640625 L 19.914062 27.640625 C 20.261719 27.640625 20.542969 27.359375 20.542969 27.011719 Z M 20.542969 27.011719 " fill-opacity="1" fill-rule="nonzero"/></svg>